#!OML:ASF I:\Actors\actors\Patient Classification 2\Patient 1\Session 1\actor1.ASF
:FULLY-SPECIFIED
:DEGREES
1059
root -0.442445 18.3032 5.58724 -8.18163 2.37206 -3.05548
lowerback 9.78869 -0.129314 1.15762
upperback 3.27911 -0.0468668 0.452715
thorax -2.08279 -0.0214543 -0.177977
lowerneck -9.03157 -2.27063 -0.395854
upperneck 20.0255 -3.68317 2.97423
head 7.7163 -1.50991 0.700664
rclavicle 1.31695e-014 7.15625e-015
rhumerus 13.1685 14.2648 -77.0876
rradius 70.2127
rwrist 0.88929
rhand -18.2999 -43.3036
rfingers 7.12502
rthumb 7.98086 -73.1329
lclavicle 1.31695e-014 7.15625e-015
lhumerus 25.2643 -30.7979 66.2924
lradius 66.5831
lwrist 11.7336
lhand -21.2148 -25.474
lfingers 7.12502
lthumb 5.16692 4.44305
rfemur 13.6379 -3.08955 15.8062
rtibia 8.22953
rfoot -18.7744 -8.21812
rtoes -9.90752
lfemur -4.17711 2.67252 -14.4461
ltibia 35.4786
lfoot -23.7772 7.86097
ltoes -55.566
1060
root -0.438139 18.3038 5.58679 -8.17088 2.31385 -2.96476
lowerback 9.67046 -0.159853 1.16773
upperback 3.35093 -0.088028 0.495922
thorax -1.94385 -0.0412629 -0.134643
lowerneck -9.05104 -2.2238 -0.327921
upperneck 19.9158 -3.58337 2.76492
head 7.67629 -1.47804 0.630046
rclavicle -1.15047e-014 -6.95746e-015
rhumerus 13.0914 14.159 -77.2281
rradius 70.2417
rwrist 0.966911
rhand -18.3102 -43.364
rfingers 7.12502
rthumb 7.97097 -73.1937
lclavicle -1.15047e-014 -6.95746e-015
lhumerus 25.5071 -30.7392 66.0578
lradius 66.5465
lwrist 11.7275
lhand -21.3378 -25.4524
lfingers 7.12502
lthumb 5.04817 4.46752
rfemur 13.598 -3.01558 15.7078
rtibia 8.28259
rfoot -18.8245 -8.21236
rtoes -9.81749
lfemur -4.14196 2.69252 -14.562
ltibia 35.4277
lfoot -23.7714 7.92124
ltoes -55.5658
1061
root -0.433455 18.3046 5.58611 -8.16242 2.26732 -2.88225
lowerback 9.29474 -0.223826 1.00254
upperback 3.61252 -0.193179 0.643649
thorax -1.46691 -0.0926655 0.120506
lowerneck -9.25993 -2.12419 -0.275427
upperneck 19.7205 -3.38953 2.4698
head 7.63964 -1.40957 0.540809
rclavicle 1.30949e-014 1.2921e-014
rhumerus 13.4481 14.2476 -77.1147
rradius 70.2368
rwrist 0.903583
rhand -18.3325 -43.5178
rfingers 7.12502
rthumb 7.94942 -73.3483
lclavicle 1.30949e-014 1.2921e-014
lhumerus 25.9321 -30.3776 65.8385
lradius 66.4862
lwrist 11.7082
lhand -21.334 -25.4524
lfingers 7.12502
lthumb 5.0519 4.46743
rfemur 13.5547 -2.95374 15.6138
rtibia 8.33804
rfoot -18.8469 -8.22707
rtoes -9.9735
lfemur -4.11563 2.74015 -14.6668
ltibia 35.3867
lfoot -23.7231 7.99352
ltoes -55.5662
1062
root -0.428463 18.3046 5.58536 -8.15838 2.22092 -2.85994
lowerback 9.35194 -0.264753 1.15311
upperback 3.58344 -0.232899 0.653391
thorax -1.52905 -0.111941 0.0503869
lowerneck -9.32211 -2.06771 -0.228064
upperneck 19.7699 -3.3063 2.39328
head 7.66366 -1.37234 0.514834
rclavicle 8.15017e-015 1.86858e-014
rhumerus 13.3317 14.1965 -77.2499
rradius 70.2421
rwrist 0.834319
rhand -18.2579 -43.6469
rfingers 7.12502
rthumb 8.02144 -73.4747
lclavicle 8.15017e-015 1.86858e-014
lhumerus 26.0066 -30.4113 65.6326
lradius 66.4739
lwrist 11.7147
lhand -21.2676 -25.4693
lfingers 7.12502
lthumb 5.11597 4.44895
rfemur 13.516 -2.90237 15.5875
rtibia 8.39228
rfoot -18.872 -8.23404
rtoes -10.1813
lfemur -4.09978 2.78451 -14.7018
ltibia 35.3674
lfoot -23.7136 8.01365
ltoes -55.5169
1063
root -0.424117 18.3035 5.5843 -8.15323 2.16941 -2.8675
lowerback 9.53496 -0.308004 1.4249
upperback 3.46525 -0.261968 0.618408
thorax -1.75321 -0.126312 -0.134228
lowerneck -9.26418 -2.03224 -0.175989
upperneck 19.8431 -3.2636 2.36916
head 7.67546 -1.35011 0.502704
rclavicle -5.34234e-015 3.18055e-015
rhumerus 13.067 14.1063 -77.4971
rradius 70.1802
rwrist 0.84857
rhand -18.3364 -43.5051
rfingers 7.12502
rthumb 7.94563 -73.3358
lclavicle -5.34234e-015 3.18055e-015
lhumerus 25.9437 -30.5268 65.4484
lradius 66.4707
lwrist 11.7546
lhand -21.1914 -25.4547
lfingers 7.12502
lthumb 5.18958 4.46171
rfemur 13.4845 -2.85202 15.5985
rtibia 8.42122
rfoot -18.8812 -8.24943
rtoes -10.2955
lfemur -4.09895 2.82894 -14.6963
ltibia 35.3676
lfoot -23.7383 7.97254
ltoes -55.4989
1064
root -0.420348 18.3024 5.58414 -8.1438 2.11272 -2.8692
lowerback 9.83771 -0.344176 1.74849
upperback 3.2527 -0.272451 0.537463
thorax -2.14133 -0.133615 -0.396603
lowerneck -9.13976 -2.0034 -0.05506
upperneck 19.9646 -3.23452 2.30474
head 7.68964 -1.333 0.465185
rclavicle -8.91425e-015 -1.15295e-014
rhumerus 12.5971 13.9592 -77.8487
rradius 70.1465
rwrist 0.913593
rhand -18.4773 -43.2923
rfingers 7.12502
rthumb 7.80966 -73.1281
lclavicle -8.91425e-015 -1.15295e-014
lhumerus 25.7385 -30.7478 65.3141
lradius 66.5064
lwrist 11.8129
lhand -21.1079 -25.3896
lfingers 7.12502
lthumb 5.27018 4.52488
rfemur 13.4523 -2.79599 15.6045
rtibia 8.44756
rfoot -18.9023 -8.23161
rtoes -10.15
lfemur -4.1029 2.88734 -14.6908
ltibia 35.3745
lfoot -23.7758 7.91199
ltoes -55.4624
